<?xml version="1.0" encoding="UTF-8" standalone="no"?>
<!DOCTYPE svg PUBLIC "-//W3C//DTD SVG 1.1//EN"
 "http://www.w3.org/Graphics/SVG/1.1/DTD/svg11.dtd">
<!-- Generated by graphviz version 2.43.0 (0)
 -->
<!-- Title: %3 Pages: 1 -->
<svg width="832pt" height="476pt"
 viewBox="0.00 0.00 831.59 476.00" xmlns="http://www.w3.org/2000/svg" xmlns:xlink="http://www.w3.org/1999/xlink">
<g id="graph0" class="graph" transform="scale(1 1) rotate(0) translate(4 472)">
<title>%3</title>
<polygon fill="white" stroke="transparent" points="-4,4 -4,-472 827.59,-472 827.59,4 -4,4"/>
<!-- BInputBuffer -->
<g id="node1" class="node">
<title>BInputBuffer</title>
<ellipse fill="none" stroke="blue" cx="436.5" cy="-378" rx="64.19" ry="18"/>
<text text-anchor="middle" x="436.5" y="-374.3" font-family="Times,serif" font-size="14.00">InputBuffer</text>
</g>
<!-- Ffilter -->
<g id="node8" class="node">
<title>Ffilter</title>
<polygon fill="none" stroke="black" points="415.5,-324 361.5,-324 361.5,-288 415.5,-288 415.5,-324"/>
<text text-anchor="middle" x="388.5" y="-302.3" font-family="Times,serif" font-size="14.00">filter</text>
</g>
<!-- BInputBuffer&#45;&gt;Ffilter -->
<g id="edge2" class="edge">
<title>BInputBuffer&#45;&gt;Ffilter</title>
<path fill="none" stroke="black" d="M424.88,-360.05C419.25,-351.84 412.36,-341.79 406.1,-332.66"/>
<polygon fill="black" stroke="black" points="408.89,-330.54 400.35,-324.28 403.11,-334.5 408.89,-330.54"/>
</g>
<!-- Foscilloscope -->
<g id="node14" class="node">
<title>Foscilloscope</title>
<polygon fill="none" stroke="black" points="535.5,-324 433.5,-324 433.5,-288 535.5,-288 535.5,-324"/>
<text text-anchor="middle" x="484.5" y="-302.3" font-family="Times,serif" font-size="14.00">oscilloscope</text>
</g>
<!-- BInputBuffer&#45;&gt;Foscilloscope -->
<g id="edge13" class="edge">
<title>BInputBuffer&#45;&gt;Foscilloscope</title>
<path fill="none" stroke="black" stroke-dasharray="1,5" d="M448.12,-360.05C453.75,-351.84 460.64,-341.79 466.9,-332.66"/>
<polygon fill="black" stroke="black" points="469.89,-334.5 472.65,-324.28 464.11,-330.54 469.89,-334.5"/>
</g>
<!-- BAcceptedPulses -->
<g id="node2" class="node">
<title>BAcceptedPulses</title>
<ellipse fill="none" stroke="black" cx="183.5" cy="-234" rx="83.39" ry="18"/>
<text text-anchor="middle" x="183.5" y="-230.3" font-family="Times,serif" font-size="14.00">AcceptedPulses</text>
</g>
<!-- Fsave_pulses -->
<g id="node9" class="node">
<title>Fsave_pulses</title>
<polygon fill="none" stroke="black" points="101,-180 0,-180 0,-144 101,-144 101,-180"/>
<text text-anchor="middle" x="50.5" y="-158.3" font-family="Times,serif" font-size="14.00">save_pulses</text>
</g>
<!-- BAcceptedPulses&#45;&gt;Fsave_pulses -->
<g id="edge6" class="edge">
<title>BAcceptedPulses&#45;&gt;Fsave_pulses</title>
<path fill="none" stroke="black" d="M153.32,-217.12C135.11,-207.53 111.66,-195.19 91.75,-184.71"/>
<polygon fill="black" stroke="black" points="93.36,-181.6 82.88,-180.04 90.1,-187.8 93.36,-181.6"/>
</g>
<!-- Faccepted_ocilloscope -->
<g id="node15" class="node">
<title>Faccepted_ocilloscope</title>
<polygon fill="none" stroke="black" points="284,-180 119,-180 119,-144 284,-144 284,-180"/>
<text text-anchor="middle" x="201.5" y="-158.3" font-family="Times,serif" font-size="14.00">accepted_ocilloscope</text>
</g>
<!-- BAcceptedPulses&#45;&gt;Faccepted_ocilloscope -->
<g id="edge14" class="edge">
<title>BAcceptedPulses&#45;&gt;Faccepted_ocilloscope</title>
<path fill="none" stroke="black" stroke-dasharray="1,5" d="M187.95,-215.7C189.95,-207.9 192.37,-198.51 194.6,-189.83"/>
<polygon fill="black" stroke="black" points="198,-190.66 197.1,-180.1 191.22,-188.92 198,-190.66"/>
</g>
<!-- BPulseParametersUp -->
<g id="node3" class="node">
<title>BPulseParametersUp</title>
<ellipse fill="none" stroke="black" cx="388.5" cy="-234" rx="103.18" ry="18"/>
<text text-anchor="middle" x="388.5" y="-230.3" font-family="Times,serif" font-size="14.00">PulseParametersUp</text>
</g>
<!-- FhistUp -->
<g id="node10" class="node">
<title>FhistUp</title>
<polygon fill="none" stroke="black" points="403,-180 338,-180 338,-144 403,-144 403,-180"/>
<text text-anchor="middle" x="370.5" y="-158.3" font-family="Times,serif" font-size="14.00">histUp</text>
</g>
<!-- BPulseParametersUp&#45;&gt;FhistUp -->
<g id="edge7" class="edge">
<title>BPulseParametersUp&#45;&gt;FhistUp</title>
<path fill="none" stroke="black" d="M384.05,-215.7C382.05,-207.9 379.63,-198.51 377.4,-189.83"/>
<polygon fill="black" stroke="black" points="380.78,-188.92 374.9,-180.1 374,-190.66 380.78,-188.92"/>
</g>
<!-- BPulseParametersDown -->
<g id="node4" class="node">
<title>BPulseParametersDown</title>
<ellipse fill="none" stroke="black" cx="662.5" cy="-234" rx="116.18" ry="18"/>
<text text-anchor="middle" x="662.5" y="-230.3" font-family="Times,serif" font-size="14.00">PulseParametersDown</text>
</g>
<!-- FhistDown -->
<g id="node11" class="node">
<title>FhistDown</title>
<polygon fill="none" stroke="black" points="708.5,-180 624.5,-180 624.5,-144 708.5,-144 708.5,-180"/>
<text text-anchor="middle" x="666.5" y="-158.3" font-family="Times,serif" font-size="14.00">histDown</text>
</g>
<!-- BPulseParametersDown&#45;&gt;FhistDown -->
<g id="edge9" class="edge">
<title>BPulseParametersDown&#45;&gt;FhistDown</title>
<path fill="none" stroke="black" d="M663.49,-215.7C663.93,-207.98 664.46,-198.71 664.95,-190.11"/>
<polygon fill="black" stroke="black" points="668.45,-190.29 665.52,-180.1 661.46,-189.89 668.45,-190.29"/>
</g>
<!-- BPulseParametersUp_Export -->
<g id="node5" class="node">
<title>BPulseParametersUp_Export</title>
<ellipse fill="none" stroke="black" cx="361.5" cy="-90" rx="139.98" ry="18"/>
<text text-anchor="middle" x="361.5" y="-86.3" font-family="Times,serif" font-size="14.00">PulseParametersUp_Export</text>
</g>
<!-- FsaveUp -->
<g id="node12" class="node">
<title>FsaveUp</title>
<polygon fill="none" stroke="black" points="396.5,-36 326.5,-36 326.5,0 396.5,0 396.5,-36"/>
<text text-anchor="middle" x="361.5" y="-14.3" font-family="Times,serif" font-size="14.00">saveUp</text>
</g>
<!-- BPulseParametersUp_Export&#45;&gt;FsaveUp -->
<g id="edge11" class="edge">
<title>BPulseParametersUp_Export&#45;&gt;FsaveUp</title>
<path fill="none" stroke="black" d="M361.5,-71.7C361.5,-63.98 361.5,-54.71 361.5,-46.11"/>
<polygon fill="black" stroke="black" points="365,-46.1 361.5,-36.1 358,-46.1 365,-46.1"/>
</g>
<!-- BPulseParametersDown_Export -->
<g id="node6" class="node">
<title>BPulseParametersDown_Export</title>
<ellipse fill="none" stroke="black" cx="671.5" cy="-90" rx="152.17" ry="18"/>
<text text-anchor="middle" x="671.5" y="-86.3" font-family="Times,serif" font-size="14.00">PulseParametersDown_Export</text>
</g>
<!-- FsaveDown -->
<g id="node13" class="node">
<title>FsaveDown</title>
<polygon fill="none" stroke="black" points="716,-36 627,-36 627,0 716,0 716,-36"/>
<text text-anchor="middle" x="671.5" y="-14.3" font-family="Times,serif" font-size="14.00">saveDown</text>
</g>
<!-- BPulseParametersDown_Export&#45;&gt;FsaveDown -->
<g id="edge12" class="edge">
<title>BPulseParametersDown_Export&#45;&gt;FsaveDown</title>
<path fill="none" stroke="black" d="M671.5,-71.7C671.5,-63.98 671.5,-54.71 671.5,-46.11"/>
<polygon fill="black" stroke="black" points="675,-46.1 671.5,-36.1 668,-46.1 675,-46.1"/>
</g>
<!-- Finput -->
<g id="node7" class="node">
<title>Finput</title>
<polygon fill="none" stroke="black" points="463.5,-468 409.5,-468 409.5,-432 463.5,-432 463.5,-468"/>
<text text-anchor="middle" x="436.5" y="-446.3" font-family="Times,serif" font-size="14.00">input</text>
</g>
<!-- Finput&#45;&gt;BInputBuffer -->
<g id="edge1" class="edge">
<title>Finput&#45;&gt;BInputBuffer</title>
<path fill="none" stroke="black" d="M436.5,-431.7C436.5,-423.98 436.5,-414.71 436.5,-406.11"/>
<polygon fill="black" stroke="black" points="440,-406.1 436.5,-396.1 433,-406.1 440,-406.1"/>
</g>
<!-- Ffilter&#45;&gt;BAcceptedPulses -->
<g id="edge3" class="edge">
<title>Ffilter&#45;&gt;BAcceptedPulses</title>
<path fill="none" stroke="black" d="M361.28,-295.7C329.38,-284.81 275.81,-266.52 235.8,-252.86"/>
<polygon fill="black" stroke="black" points="236.79,-249.5 226.19,-249.58 234.53,-256.12 236.79,-249.5"/>
</g>
<!-- Ffilter&#45;&gt;BPulseParametersUp -->
<g id="edge4" class="edge">
<title>Ffilter&#45;&gt;BPulseParametersUp</title>
<path fill="none" stroke="black" d="M388.5,-287.7C388.5,-279.98 388.5,-270.71 388.5,-262.11"/>
<polygon fill="black" stroke="black" points="392,-262.1 388.5,-252.1 385,-262.1 392,-262.1"/>
</g>
<!-- Ffilter&#45;&gt;BPulseParametersDown -->
<g id="edge5" class="edge">
<title>Ffilter&#45;&gt;BPulseParametersDown</title>
<path fill="none" stroke="black" d="M415.76,-291.36C418.67,-290.14 421.62,-288.99 424.5,-288 473.56,-271.19 530.17,-258.33 575.87,-249.49"/>
<polygon fill="black" stroke="black" points="576.58,-252.92 585.74,-247.61 575.27,-246.04 576.58,-252.92"/>
</g>
<!-- FhistUp&#45;&gt;BPulseParametersUp_Export -->
<g id="edge8" class="edge">
<title>FhistUp&#45;&gt;BPulseParametersUp_Export</title>
<path fill="none" stroke="black" d="M368.28,-143.7C367.28,-135.98 366.09,-126.71 364.99,-118.11"/>
<polygon fill="black" stroke="black" points="368.45,-117.58 363.7,-108.1 361.5,-118.47 368.45,-117.58"/>
</g>
<!-- FhistDown&#45;&gt;BPulseParametersDown_Export -->
<g id="edge10" class="edge">
<title>FhistDown&#45;&gt;BPulseParametersDown_Export</title>
<path fill="none" stroke="black" d="M667.74,-143.7C668.29,-135.98 668.95,-126.71 669.56,-118.11"/>
<polygon fill="black" stroke="black" points="673.06,-118.33 670.28,-108.1 666.07,-117.83 673.06,-118.33"/>
</g>
</g>
</svg>
