<?xml version="1.0" encoding="UTF-8" standalone="no"?>
<!DOCTYPE svg PUBLIC "-//W3C//DTD SVG 1.1//EN"
 "http://www.w3.org/Graphics/SVG/1.1/DTD/svg11.dtd">
<!-- Generated by graphviz version 2.43.0 (0)
 -->
<!-- Title: %3 Pages: 1 -->
<svg width="264pt" height="476pt"
 viewBox="0.00 0.00 264.08 476.00" xmlns="http://www.w3.org/2000/svg" xmlns:xlink="http://www.w3.org/1999/xlink">
<g id="graph0" class="graph" transform="scale(1 1) rotate(0) translate(4 472)">
<title>%3</title>
<polygon fill="white" stroke="transparent" points="-4,4 -4,-472 260.08,-472 260.08,4 -4,4"/>
<!-- Boscilloscope -->
<g id="node1" class="node">
<title>Boscilloscope</title>
<ellipse fill="none" stroke="blue" cx="92.04" cy="-378" rx="66.09" ry="18"/>
<text text-anchor="middle" x="92.04" y="-374.3" font-family="Times,serif" font-size="14.00">oscilloscope</text>
</g>
<!-- Fosc -->
<g id="node5" class="node">
<title>Fosc</title>
<polygon fill="none" stroke="black" points="83.04,-324 29.04,-324 29.04,-288 83.04,-288 83.04,-324"/>
<text text-anchor="middle" x="56.04" y="-302.3" font-family="Times,serif" font-size="14.00">osc</text>
</g>
<!-- Boscilloscope&#45;&gt;Fosc -->
<g id="edge2" class="edge">
<title>Boscilloscope&#45;&gt;Fosc</title>
<path fill="none" stroke="black" stroke-dasharray="1,5" d="M83.32,-360.05C79.18,-352.01 74.14,-342.2 69.53,-333.23"/>
<polygon fill="black" stroke="black" points="72.61,-331.57 64.92,-324.28 66.38,-334.77 72.61,-331.57"/>
</g>
<!-- Fpha -->
<g id="node6" class="node">
<title>Fpha</title>
<polygon fill="none" stroke="black" points="155.04,-324 101.04,-324 101.04,-288 155.04,-288 155.04,-324"/>
<text text-anchor="middle" x="128.04" y="-302.3" font-family="Times,serif" font-size="14.00">pha</text>
</g>
<!-- Boscilloscope&#45;&gt;Fpha -->
<g id="edge3" class="edge">
<title>Boscilloscope&#45;&gt;Fpha</title>
<path fill="none" stroke="black" d="M100.75,-360.05C104.89,-352.01 109.93,-342.2 114.55,-333.23"/>
<polygon fill="black" stroke="black" points="117.69,-334.77 119.15,-324.28 111.47,-331.57 117.69,-334.77"/>
</g>
<!-- Bpulse_parameters -->
<g id="node2" class="node">
<title>Bpulse_parameters</title>
<ellipse fill="none" stroke="black" cx="128.04" cy="-234" rx="93.68" ry="18"/>
<text text-anchor="middle" x="128.04" y="-230.3" font-family="Times,serif" font-size="14.00">pulse_parameters</text>
</g>
<!-- Fhistogram -->
<g id="node7" class="node">
<title>Fhistogram</title>
<polygon fill="none" stroke="black" points="172.54,-180 83.54,-180 83.54,-144 172.54,-144 172.54,-180"/>
<text text-anchor="middle" x="128.04" y="-158.3" font-family="Times,serif" font-size="14.00">histogram</text>
</g>
<!-- Bpulse_parameters&#45;&gt;Fhistogram -->
<g id="edge5" class="edge">
<title>Bpulse_parameters&#45;&gt;Fhistogram</title>
<path fill="none" stroke="black" d="M128.04,-215.7C128.04,-207.98 128.04,-198.71 128.04,-190.11"/>
<polygon fill="black" stroke="black" points="131.54,-190.1 128.04,-180.1 124.54,-190.1 131.54,-190.1"/>
</g>
<!-- Bpulse_parameters_export -->
<g id="node3" class="node">
<title>Bpulse_parameters_export</title>
<ellipse fill="none" stroke="black" cx="128.04" cy="-90" rx="128.08" ry="18"/>
<text text-anchor="middle" x="128.04" y="-86.3" font-family="Times,serif" font-size="14.00">pulse_parameters_export</text>
</g>
<!-- Fpulse_parameters_export -->
<g id="node8" class="node">
<title>Fpulse_parameters_export</title>
<polygon fill="none" stroke="black" points="226.54,-36 29.54,-36 29.54,0 226.54,0 226.54,-36"/>
<text text-anchor="middle" x="128.04" y="-14.3" font-family="Times,serif" font-size="14.00">pulse_parameters_export</text>
</g>
<!-- Bpulse_parameters_export&#45;&gt;Fpulse_parameters_export -->
<g id="edge7" class="edge">
<title>Bpulse_parameters_export&#45;&gt;Fpulse_parameters_export</title>
<path fill="none" stroke="black" d="M128.04,-71.7C128.04,-63.98 128.04,-54.71 128.04,-46.11"/>
<polygon fill="black" stroke="black" points="131.54,-46.1 128.04,-36.1 124.54,-46.1 131.54,-46.1"/>
</g>
<!-- Ffrom_simulation -->
<g id="node4" class="node">
<title>Ffrom_simulation</title>
<polygon fill="none" stroke="black" points="158.04,-468 26.04,-468 26.04,-432 158.04,-432 158.04,-468"/>
<text text-anchor="middle" x="92.04" y="-446.3" font-family="Times,serif" font-size="14.00">from_simulation</text>
</g>
<!-- Ffrom_simulation&#45;&gt;Boscilloscope -->
<g id="edge1" class="edge">
<title>Ffrom_simulation&#45;&gt;Boscilloscope</title>
<path fill="none" stroke="black" d="M92.04,-431.7C92.04,-423.98 92.04,-414.71 92.04,-406.11"/>
<polygon fill="black" stroke="black" points="95.54,-406.1 92.04,-396.1 88.54,-406.1 95.54,-406.1"/>
</g>
<!-- Fpha&#45;&gt;Bpulse_parameters -->
<g id="edge4" class="edge">
<title>Fpha&#45;&gt;Bpulse_parameters</title>
<path fill="none" stroke="black" d="M128.04,-287.7C128.04,-279.98 128.04,-270.71 128.04,-262.11"/>
<polygon fill="black" stroke="black" points="131.54,-262.1 128.04,-252.1 124.54,-262.1 131.54,-262.1"/>
</g>
<!-- Fhistogram&#45;&gt;Bpulse_parameters_export -->
<g id="edge6" class="edge">
<title>Fhistogram&#45;&gt;Bpulse_parameters_export</title>
<path fill="none" stroke="black" d="M128.04,-143.7C128.04,-135.98 128.04,-126.71 128.04,-118.11"/>
<polygon fill="black" stroke="black" points="131.54,-118.1 128.04,-108.1 124.54,-118.1 131.54,-118.1"/>
</g>
</g>
</svg>
